<?xml version="1.0" standalone="no"?>
<!DOCTYPE svg PUBLIC "-//W3C//DTD SVG 20010904//EN"
 "http://www.w3.org/TR/2001/REC-SVG-20010904/DTD/svg10.dtd">
<svg version="1.0" xmlns="http://www.w3.org/2000/svg"
 width="500.000000pt" height="500.000000pt" viewBox="0 0 500.000000 500.000000"
 preserveAspectRatio="xMidYMid meet">
<metadata>
Created by potrace 1.16, written by Peter Selinger 2001-2019
</metadata>
<g transform="translate(0.000000,500.000000) scale(0.100000,-0.100000)"
fill="#000000" stroke="none">
<path d="M859 4303 c-337 -351 -648 -675 -693 -720 l-81 -83 1642 0 1642 0
612 638 c337 350 648 674 693 720 l81 82 -1642 0 -1642 0 -612 -637z"/>
<path d="M4097 4143 l-647 -688 0 -1693 0 -1692 650 690 650 691 0 1689 c0
930 -1 1690 -3 1690 -2 0 -294 -309 -650 -687z"/>
<path d="M40 1740 l0 -1680 1665 0 1665 0 0 1680 0 1680 -1665 0 -1665 0 0
-1680z m2180 1350 l0 -90 90 0 90 0 0 -115 0 -115 -90 0 -90 0 0 -90 0 -90
-115 0 -115 0 0 90 0 90 -90 0 -90 0 0 115 0 115 90 0 90 0 0 90 0 90 115 0
115 0 0 -90z m790 0 l0 -90 90 0 90 0 0 -115 0 -115 -90 0 -90 0 0 -90 0 -90
-115 0 -115 0 0 90 0 90 -90 0 -90 0 0 115 0 115 90 0 90 0 0 90 0 90 115 0
115 0 0 -90z m-1097 -609 c260 -69 393 -223 454 -527 16 -81 17 -162 18 -854
l0 -765 -162 -3 -163 -2 0 744 c0 613 -3 758 -15 821 -46 243 -200 348 -489
332 -265 -13 -458 -153 -543 -391 -45 -129 -46 -139 -52 -836 l-6 -665 -162
-3 -163 -2 0 1070 0 1070 155 0 155 0 0 -170 c0 -161 1 -170 19 -170 12 0 31
18 51 51 43 71 163 186 241 232 60 35 135 62 239 86 75 17 333 6 423 -18z"/>
</g>
</svg>
